<svg xmlns="http://www.w3.org/2000/svg"
    xmlns:xlink="http://www.w3.org/1999/xlink" fill="none" version="1.1" width="20.000375747680664" height="20" viewBox="0 0 20.000375747680664 20">
    <g>
        <g style="opacity:0;">
            <rect x="0.0003757476806640625" y="0" width="20" height="20" rx="0" fill="#0067D1" fill-opacity="1"/>
        </g>
        <g>
            <path d="M4.000370747677405,2L16.000400747677404,2C17.104900747677405,2,18.000400747677404,2.89543,18.000400747677404,4L18.000400747677404,8C18.000400747677404,8.55229,18.448100747677405,9,19.000400747677404,9C19.552700747677406,9,20.000400747677404,8.55229,20.000400747677404,8L20.000400747677404,4C20.000400747677404,1.79086,18.209500747677403,2.22045e-16,16.000400747677404,0L4.000370747677405,0C1.7912407476774044,-1.11022e-16,0.0003757476774044335,1.79086,0.0003757476774044335,4L0.0003757476774044335,15C0.0003757476774044335,15.056,0.0013757476774044334,15.112,0.0033757476774044335,15.167C-0.005624252322595566,15.277,0.0033757476774044335,15.387,0.030375747677404433,15.495C0.28010474767740445,17.4975,1.9823607476774043,19.0004,4.000370747677405,19L9.000370747677405,19C9.552660747677404,19,10.000400747677405,18.5523,10.000400747677405,18C10.000400747677405,17.4477,9.552660747677404,17,9.000370747677405,17L4.000370747677405,17C3.1297907476774043,17.0003,2.3590307476774046,16.4374,2.0943707476774045,15.608L8.966380747677404,9.38L9.793380747677405,10.207C10.183900747677404,10.5974,10.816900747677405,10.5974,11.207400747677404,10.207L14.000400747677405,7.414L14.793400747677405,8.207C15.044400747677404,8.46696,15.416300747677404,8.57121,15.765900747677405,8.4797C16.115500747677405,8.38818,16.388600747677405,8.11514,16.480100747677405,7.76551C16.571600747677405,7.41588,16.467300747677406,7.04407,16.207400747677404,6.793L14.707400747677404,5.293C14.316900747677405,4.90262,13.683900747677404,4.90262,13.293400747677405,5.293L10.500400747677405,8.086L9.707370747677404,7.293C9.330460747677405,6.91634,8.724400747677404,6.90138,8.329380747677405,7.259L2.0003807476774043,12.994L2.0003807476774043,4C2.0003807476774043,2.89543,2.8958107476774044,2,4.000370747677405,2Z" fill="#FFFFFF" fill-opacity="1"/>
        </g>
        <g>
            <path d="M6.250375747680664,6.79904C6.714475747680664,6.53109,7.000375747680664,6.0359,7.000375747680664,5.5C7.000375747680664,4.671573,6.328805747680664,4,5.500375747680664,4C4.6719487476806645,4,4.000375747680664,4.671573,4.000375747680664,5.5C4.000375747680664,6.0359,4.286273747680664,6.53109,4.750375747680664,6.79904C5.214475747680664,7.0669900000000005,5.786275747680664,7.0669900000000005,6.250375747680664,6.79904ZM15.000375747680664,12C15.000375747680664,11.44772,15.448075747680663,11,16.000375747680664,11C16.552675747680667,11,17.000375747680664,11.44772,17.000375747680664,12L17.000375747680664,14L19.000375747680664,14C19.552675747680667,14,20.000375747680664,14.4477,20.000375747680664,15C20.000375747680664,15.5523,19.552675747680667,16,19.000375747680664,16L17.000375747680664,16L17.000375747680664,18C17.000375747680664,18.552300000000002,16.552675747680667,19,16.000375747680664,19C15.448075747680663,19,15.000375747680664,18.552300000000002,15.000375747680664,18L15.000375747680664,16L13.000375747680664,16C12.448085747680665,16,12.000375747680664,15.5523,12.000375747680664,15C12.000375747680664,14.4477,12.448085747680665,14,13.000375747680664,14L15.000375747680664,14L15.000375747680664,12Z" fill-rule="evenodd" fill="#FFFFFF" fill-opacity="1"/>
        </g>
    </g>
</svg>