<svg xmlns="http://www.w3.org/2000/svg"
    xmlns:xlink="http://www.w3.org/1999/xlink" fill="none" version="1.1" width="20" height="20" viewBox="0 0 20 20">
    <g>
        <g style="opacity:0;">
            <rect x="0" y="0" width="20" height="20" rx="0" fill="#0067D1" fill-opacity="1"/>
        </g>
        <g>
            <path d="M1,3C0.9999999999999998,1.8954309999999999,1.8954309999999999,1,3,1L15,1C16.104599999999998,1,17,1.8954309999999999,17,3L17,5C17,5.55228,16.552300000000002,6,16,6C15.4477,6,15,5.55228,15,5L15,3L10,3L10,18L6,18C5.44772,18,5,17.5523,5,17C5,16.447699999999998,5.44772,16,6,16L8,16L8,3L3,3L3,5C3,5.55228,2.55228,6,2,6C1.447715,6,1,5.55228,1,5L1,3Z" fill="#FFFFFF" fill-opacity="1"/>
        </g>
        <g>
            <path d="M14,12C14,11.447715,14.44772,11,15,11C15.55228,11,16,11.447715,16,12L16,14L18,14C18.55228,14,19,14.44772,19,15C19,15.55228,18.55228,16,18,16L16,16L16,18C16,18.55228,15.55228,19,15,19C14.44772,19,14,18.55228,14,18L14,16L12,16C11.447715,16,11,15.55228,11,15C11,14.44772,11.447715,14,12,14L14,14L14,12Z" fill="#FFFFFF" fill-opacity="1"/>
        </g>
    </g>
</svg>