<svg xmlns="http://www.w3.org/2000/svg"
    xmlns:xlink="http://www.w3.org/1999/xlink" fill="none" version="1.1" width="20" height="20" viewBox="0 0 20 20">
    <g>
        <g style="opacity:0;">
            <rect x="0" y="0" width="20" height="20" rx="0" fill="#0067D1" fill-opacity="1"/>
        </g>
        <g>
            <path d="M4,0C3.447715,-3.38177e-17,3,0.447715,3,1L3,15.454C3,16.308,3.692,17,4.545,17L14,17L14,15L5.714,15C5.52464,15,5.343030000000001,14.9248,5.20913,14.7909C5.07522,14.657,5,14.4754,5,14.286L5,1C5,0.447715,4.55228,3.38177e-17,4,0Z" fill="#FFFFFF" fill-opacity="1"/>
        </g>
        <g>
            <path d="M0,4C0,3.447715,0.447715,3,1,3L2,3L2,5L1,5C0.447715,5,0,4.55228,0,4ZM17,19C17,19.5523,16.5523,20,16,20L16,19.999C15.4477,19.999,15,19.5513,15,18.999000000000002L15,5.849C15,5.38,14.62,5,14.15,5L6,5L6,3L15.454,3C16.308,3,17,3.691,17,4.545L17,19ZM19,15L18,15L18,17L19,17C19.5523,17,20,16.552300000000002,20,16C20,15.4477,19.5523,15,19,15Z" fill-rule="evenodd" fill="#FFFFFF" fill-opacity="1"/>
        </g>
    </g>
</svg>