<svg xmlns="http://www.w3.org/2000/svg" xmlns:xlink="http://www.w3.org/1999/xlink" fill="none" version="1.1" width="20" height="20" viewBox="0 0 20 20"><g><g style="opacity:0;"><rect x="0" y="0" width="20" height="20" rx="0" fill="#0067D1" fill-opacity="1"/></g><g><path d="M7.092322040176391,2.1944930622787475C8.485682040176393,3.2328610622787473,8.906202040176392,5.136271062278748,8.080002040176392,6.665001062278748L8.080002040176392,6.666001062278748L10.000002040176392,8.586001062278747L15.959022040176391,2.6270010622787474C16.35142204017639,2.2480280622787476,16.97512204017639,2.2534480622787476,17.36082204017639,2.6391810622787473C17.74652204017639,3.024911062278748,17.752022040176392,3.6486210622787474,17.37302204017639,4.041001062278747L10.720002040176391,10.694001062278748C10.710982040176392,10.703641062278747,10.701642040176392,10.712981062278747,10.692002040176392,10.722001062278748L8.078002040176392,13.335971062278748C8.904592040176391,14.864671062278747,8.48433204017639,16.768371062278746,7.090972040176392,17.80697106227875C5.697622040176392,18.845571062278747,3.7532320401763917,18.70447106227875,2.5243820401763917,17.475571062278746C1.2955420401763915,16.246771062278746,1.1544700401763917,14.302371062278748,2.1930640401763917,12.909071062278748C3.2316620401763916,11.515671062278747,5.1353220401763915,11.095411062278748,6.664002040176392,11.921971062278747L8.585002040176391,10.000001062278747L6.665002040176391,8.080001062278747C5.136272040176392,8.906201062278747,3.2328520401763914,8.485681062278747,2.1944930401763916,7.092331062278747C1.1561290401763915,5.698971062278748,1.2972900401763916,3.7547810622787474,2.526032040176392,2.5260310622787476C3.7547820401763916,1.2972900622787475,5.6989720401763915,1.1561290622787475,7.092322040176391,2.1944930622787475ZM6.499982040176391,4.9999810622787475Q6.499982040176391,5.073681062278748,6.492762040176392,5.1470110622787475Q6.485542040176392,5.2203510622787475,6.471162040176392,5.292621062278748Q6.456782040176392,5.364891062278748,6.435392040176391,5.435411062278748Q6.414002040176392,5.505931062278748,6.385802040176392,5.574011062278748Q6.357602040176392,5.642091062278747,6.322862040176392,5.707081062278747Q6.288132040176391,5.772071062278748,6.247192040176391,5.833341062278747Q6.206252040176391,5.894611062278748,6.159502040176392,5.9515810622787475Q6.1127520401763915,6.008541062278748,6.060642040176392,6.060641062278748Q6.008542040176391,6.112751062278748,5.951572040176392,6.159501062278747Q5.8946120401763915,6.2062510622787475,5.833342040176392,6.247191062278747Q5.772072040176392,6.288131062278747,5.707082040176392,6.322871062278748Q5.642092040176392,6.357601062278747,5.574012040176392,6.385801062278747Q5.505932040176392,6.414001062278747,5.4354120401763915,6.435401062278747Q5.364892040176391,6.456791062278747,5.292622040176392,6.471161062278748Q5.220342040176392,6.485541062278748,5.147012040176392,6.492761062278747Q5.073672040176392,6.4999810622787475,4.999982040176391,6.4999810622787475Q4.926292040176392,6.4999810622787475,4.852962040176392,6.492761062278747Q4.779622040176392,6.485541062278748,4.707352040176392,6.471161062278748Q4.635072040176391,6.456791062278747,4.5645620401763916,6.435401062278747Q4.494042040176391,6.414001062278747,4.425962040176392,6.385801062278747Q4.357882040176392,6.357601062278747,4.292892040176392,6.322871062278748Q4.227902040176392,6.288131062278747,4.166632040176392,6.247191062278747Q4.1053620401763915,6.2062510622787475,4.048392040176392,6.159501062278747Q3.9914320401763916,6.112751062278748,3.9393220401763918,6.060641062278748Q3.8872220401763915,6.008541062278748,3.8404720401763917,5.9515810622787475Q3.793722040176392,5.894611062278748,3.7527820401763914,5.833341062278747Q3.7118420401763914,5.772071062278748,3.6771020401763916,5.707081062278747Q3.6423620401763914,5.642091062278747,3.6141620401763914,5.574011062278748Q3.5859620401763914,5.505931062278748,3.5645720401763916,5.435411062278748Q3.543182040176392,5.364891062278748,3.5288020401763918,5.292621062278748Q3.5144320401763918,5.2203510622787475,3.5072120401763915,5.1470110622787475Q3.4999820401763917,5.073681062278748,3.4999820401763917,4.9999810622787475Q3.4999820401763917,4.9262910622787475,3.5072120401763915,4.852961062278748Q3.5144320401763918,4.779621062278748,3.5288020401763918,4.7073510622787476Q3.543182040176392,4.635081062278747,3.5645720401763916,4.564561062278747Q3.5859620401763914,4.494041062278748,3.6141620401763914,4.4259610622787475Q3.6423620401763914,4.357881062278747,3.6771020401763916,4.2928910622787475Q3.7118420401763914,4.227901062278748,3.7527820401763914,4.166631062278748Q3.793722040176392,4.105361062278748,3.8404720401763917,4.048391062278748Q3.8872220401763915,3.9914310622787474,3.9393220401763918,3.9393210622787476Q3.9914320401763916,3.8872210622787478,4.048392040176392,3.8404710622787475Q4.1053620401763915,3.7937210622787476,4.166632040176392,3.7527810622787476Q4.227902040176392,3.7118410622787477,4.292892040176392,3.6771010622787474Q4.357882040176392,3.6423710622787477,4.425962040176392,3.6141710622787477Q4.494042040176391,3.5859710622787477,4.5645620401763916,3.5645710622787474Q4.635072040176391,3.5431810622787476,4.707352040176392,3.5288110622787476Q4.779622040176392,3.5144310622787476,4.852962040176392,3.5072110622787473Q4.926292040176392,3.4999910622787476,4.999982040176391,3.4999810622787475Q5.073672040176392,3.4999910622787476,5.147012040176392,3.5072110622787473Q5.220342040176392,3.5144310622787476,5.292622040176392,3.5288110622787476Q5.364892040176391,3.5431810622787476,5.4354120401763915,3.5645710622787474Q5.505932040176392,3.5859710622787477,5.574012040176392,3.6141710622787477Q5.642092040176392,3.6423710622787477,5.707082040176392,3.6771010622787474Q5.772072040176392,3.7118410622787477,5.833342040176392,3.7527810622787476Q5.8946120401763915,3.7937210622787476,5.951572040176392,3.8404710622787475Q6.008542040176391,3.8872210622787478,6.060642040176392,3.9393210622787476Q6.1127520401763915,3.9914310622787474,6.159502040176392,4.048391062278748Q6.206252040176391,4.105361062278748,6.247192040176391,4.166631062278748Q6.288132040176391,4.227901062278748,6.322862040176392,4.2928910622787475Q6.357602040176392,4.357881062278747,6.385802040176392,4.4259610622787475Q6.414002040176392,4.494041062278748,6.435392040176391,4.564561062278747Q6.456782040176392,4.635081062278747,6.471162040176392,4.7073510622787476Q6.485542040176392,4.779621062278748,6.492762040176392,4.852961062278748Q6.499982040176391,4.9262910622787475,6.499982040176391,4.9999810622787475ZM6.499982040176391,14.999971062278748Q6.499982040176391,15.073671062278748,6.492762040176392,15.146971062278748Q6.485542040176392,15.220371062278748,6.471162040176392,15.292571062278748Q6.456782040176392,15.364871062278748,6.435392040176391,15.435371062278747Q6.414002040176392,15.505971062278748,6.385802040176392,15.573971062278748Q6.357602040176392,15.642071062278747,6.322862040176392,15.707071062278748Q6.288132040176391,15.772071062278748,6.247192040176391,15.833371062278747Q6.206252040176391,15.894571062278748,6.159502040176392,15.951571062278747Q6.1127520401763915,16.008571062278747,6.060642040176392,16.060671062278747Q6.008542040176391,16.112771062278746,5.951572040176392,16.159471062278747Q5.8946120401763915,16.206271062278745,5.833342040176392,16.247171062278746Q5.772072040176392,16.28817106227875,5.707082040176392,16.322871062278747Q5.642092040176392,16.357571062278748,5.574012040176392,16.38577106227875Q5.505932040176392,16.413971062278748,5.4354120401763915,16.435371062278747Q5.364892040176391,16.456771062278747,5.292622040176392,16.47117106227875Q5.220342040176392,16.485571062278748,5.147012040176392,16.49277106227875Q5.073672040176392,16.499971062278746,4.999982040176391,16.499971062278746Q4.926292040176392,16.499971062278746,4.852962040176392,16.49277106227875Q4.779622040176392,16.485571062278748,4.707352040176392,16.47117106227875Q4.635072040176391,16.456771062278747,4.5645620401763916,16.435371062278747Q4.494042040176391,16.413971062278748,4.425962040176392,16.38577106227875Q4.357882040176392,16.357571062278748,4.292892040176392,16.322871062278747Q4.227902040176392,16.28817106227875,4.166632040176392,16.247171062278746Q4.1053620401763915,16.206271062278745,4.048392040176392,16.159471062278747Q3.9914320401763916,16.112771062278746,3.9393220401763918,16.060671062278747Q3.8872220401763915,16.008571062278747,3.8404720401763917,15.951571062278747Q3.793722040176392,15.894571062278748,3.7527820401763914,15.833371062278747Q3.7118420401763914,15.772071062278748,3.6771020401763916,15.707071062278748Q3.6423620401763914,15.642071062278747,3.6141620401763914,15.573971062278748Q3.5859620401763914,15.505971062278748,3.5645720401763916,15.435371062278747Q3.543182040176392,15.364871062278748,3.5288020401763918,15.292571062278748Q3.5144320401763918,15.220371062278748,3.5072120401763915,15.146971062278748Q3.4999820401763917,15.073671062278748,3.4999820401763917,14.999971062278748Q3.4999820401763917,14.926271062278747,3.5072120401763915,14.852971062278748Q3.5144320401763918,14.779671062278748,3.5288020401763918,14.707371062278748Q3.543182040176392,14.635071062278747,3.5645720401763916,14.564571062278748Q3.5859620401763914,14.494071062278747,3.6141620401763914,14.425971062278748Q3.6423620401763914,14.357871062278747,3.6771020401763916,14.292871062278747Q3.7118420401763914,14.227871062278748,3.7527820401763914,14.166671062278748Q3.793722040176392,14.105371062278747,3.8404720401763917,14.048371062278747Q3.8872220401763915,13.991471062278748,3.9393220401763918,13.939371062278747Q3.9914320401763916,13.887171062278748,4.048392040176392,13.840471062278748Q4.1053620401763915,13.793671062278747,4.166632040176392,13.752771062278747Q4.227902040176392,13.711871062278748,4.292892040176392,13.677071062278747Q4.357882040176392,13.642371062278748,4.425962040176392,13.614171062278748Q4.494042040176391,13.585971062278748,4.5645620401763916,13.564571062278748Q4.635072040176391,13.543171062278747,4.707352040176392,13.528771062278748Q4.779622040176392,13.514471062278748,4.852962040176392,13.507171062278747Q4.926292040176392,13.499971062278748,4.999982040176391,13.499971062278748Q5.073672040176392,13.499971062278748,5.147012040176392,13.507171062278747Q5.220342040176392,13.514471062278748,5.292622040176392,13.528771062278748Q5.364892040176391,13.543171062278747,5.4354120401763915,13.564571062278748Q5.505932040176392,13.585971062278748,5.574012040176392,13.614171062278748Q5.642092040176392,13.642371062278748,5.707082040176392,13.677071062278747Q5.772072040176392,13.711871062278748,5.833342040176392,13.752771062278747Q5.8946120401763915,13.793671062278747,5.951572040176392,13.840471062278748Q6.008542040176391,13.887171062278748,6.060642040176392,13.939371062278747Q6.1127520401763915,13.991471062278748,6.159502040176392,14.048371062278747Q6.206252040176391,14.105371062278747,6.247192040176391,14.166671062278748Q6.288132040176391,14.227871062278748,6.322862040176392,14.292871062278747Q6.357602040176392,14.357871062278747,6.385802040176392,14.425971062278748Q6.414002040176392,14.494071062278747,6.435392040176391,14.564571062278748Q6.456782040176392,14.635071062278747,6.471162040176392,14.707371062278748Q6.485542040176392,14.779671062278748,6.492762040176392,14.852971062278748Q6.499982040176391,14.926271062278747,6.499982040176391,14.999971062278748Z" fill-rule="evenodd" fill="#FFFFFF" fill-opacity="1"/></g><g><path d="M11.349999959289551,11.35999965411377C11.53743495928955,11.172089654113769,11.79188295928955,11.06640047211377,12.057292959289551,11.06621290419677C12.32270295928955,11.06602533611377,12.57730295928955,11.17135465411377,12.76500295928955,11.35899965411377L17.37300295928955,15.95900265411377C17.752262959289553,16.35111265411377,17.74728295928955,16.97482265411377,17.36182295928955,17.36083265411377C16.97635295928955,17.74684265411377,16.35264295928955,17.75270265411377,15.96000295928955,17.37400265411377L11.35199995928955,12.774002654113769C10.96134155928955,12.38377265411377,10.96089385928955,11.75077565411377,11.35099995928955,11.35999965411377L11.349999959289551,11.35999965411377Z" fill="#FFFFFF" fill-opacity="1"/></g></g></svg>