<svg xmlns="http://www.w3.org/2000/svg"
    xmlns:xlink="http://www.w3.org/1999/xlink" fill="none" version="1.1" width="4" height="24" viewBox="0 0 4 24">
    <g>
        <path d="M4,2Q4,2.09825,3.99037,2.19603Q3.98074,2.29381,3.96157,2.39018Q3.9424,2.48655,3.91388,2.58057Q3.88536,2.67459,3.84776,2.76537Q3.81016,2.85614,3.76384,2.94279Q3.71753,3.02945,3.66294,3.11114Q3.60835,3.19284,3.54602,3.26879Q3.48369,3.34474,3.41421,3.41421Q3.34474,3.48369,3.26879,3.54602Q3.19284,3.60835,3.11114,3.66294Q3.02945,3.71753,2.94279,3.76384Q2.85614,3.81016,2.76537,3.84776Q2.67459,3.88536,2.58057,3.91388Q2.48655,3.9424,2.39018,3.96157Q2.29381,3.98074,2.19603,3.99037Q2.09825,4,2,4Q1.90175,4,1.80397,3.99037Q1.70619,3.98074,1.60982,3.96157Q1.51345,3.9424,1.41943,3.91388Q1.32541,3.88536,1.23463,3.84776Q1.14386,3.81016,1.05721,3.76384Q0.970554,3.71753,0.888859,3.66294Q0.807164,3.60835,0.731213,3.54602Q0.655262,3.48369,0.585786,3.41421Q0.516311,3.34474,0.453979,3.26879Q0.391648,3.19284,0.337061,3.11114Q0.282474,3.02945,0.236157,2.94279Q0.189841,2.85614,0.152241,2.76537Q0.114641,2.67459,0.0861193,2.58057Q0.0575978,2.48655,0.0384294,2.39018Q0.0192611,2.29381,0.00963055,2.19603Q0,2.09825,0,2Q0,1.90175,0.00963055,1.80397Q0.0192611,1.70619,0.0384294,1.60982Q0.0575978,1.51345,0.0861193,1.41943Q0.114641,1.32541,0.152241,1.23463Q0.189841,1.14386,0.236157,1.05721Q0.282474,0.970554,0.337061,0.888859Q0.391648,0.807164,0.453979,0.731213Q0.516311,0.655262,0.585786,0.585786Q0.655262,0.516311,0.731213,0.453979Q0.807164,0.391648,0.888859,0.337061Q0.970554,0.282474,1.05721,0.236157Q1.14386,0.189841,1.23463,0.152241Q1.32541,0.114641,1.41943,0.0861193Q1.51345,0.0575978,1.60982,0.0384294Q1.70619,0.0192611,1.80397,0.00963055Q1.90175,0,2,0Q2.09825,0,2.19603,0.00963055Q2.29381,0.0192611,2.39018,0.0384294Q2.48655,0.0575978,2.58057,0.0861193Q2.67459,0.114641,2.76537,0.152241Q2.85614,0.189841,2.94279,0.236157Q3.02945,0.282474,3.11114,0.337061Q3.19284,0.391648,3.26879,0.453979Q3.34474,0.516311,3.41421,0.585786Q3.48369,0.655262,3.54602,0.731213Q3.60835,0.807164,3.66294,0.888859Q3.71753,0.970554,3.76384,1.05721Q3.81016,1.14386,3.84776,1.23463Q3.88536,1.32541,3.91388,1.41943Q3.9424,1.51345,3.96157,1.60982Q3.98074,1.70619,3.99037,1.80397Q4,1.90175,4,2ZM4,12Q4,12.0983,3.99037,12.196Q3.98074,12.2938,3.96157,12.3902Q3.9424,12.4865,3.91388,12.5806Q3.88536,12.6746,3.84776,12.7654Q3.81016,12.8561,3.76384,12.9428Q3.71753,13.0294,3.66294,13.1111Q3.60835,13.1928,3.54602,13.2688Q3.48369,13.3447,3.41421,13.4142Q3.34474,13.4837,3.26879,13.546Q3.19284,13.6084,3.11114,13.6629Q3.02945,13.7175,2.94279,13.7638Q2.85614,13.8102,2.76537,13.8478Q2.67459,13.8854,2.58057,13.9139Q2.48655,13.9424,2.39018,13.9616Q2.29381,13.9807,2.19603,13.9904Q2.09825,14,2,14Q1.90175,14,1.80397,13.9904Q1.70619,13.9807,1.60982,13.9616Q1.51345,13.9424,1.41943,13.9139Q1.32541,13.8854,1.23463,13.8478Q1.14386,13.8102,1.05721,13.7638Q0.970554,13.7175,0.888859,13.6629Q0.807164,13.6084,0.731213,13.546Q0.655262,13.4837,0.585786,13.4142Q0.516311,13.3447,0.453979,13.2688Q0.391648,13.1928,0.337061,13.1111Q0.282474,13.0294,0.236157,12.9428Q0.189841,12.8561,0.152241,12.7654Q0.114641,12.6746,0.0861193,12.5806Q0.0575978,12.4865,0.0384294,12.3902Q0.0192611,12.2938,0.00963055,12.196Q0,12.0983,0,12Q0,11.9017,0.00963055,11.804Q0.0192611,11.7062,0.0384294,11.6098Q0.0575978,11.5135,0.0861193,11.4194Q0.114641,11.3254,0.152241,11.2346Q0.189841,11.1439,0.236157,11.0572Q0.282474,10.9706,0.337061,10.8889Q0.391648,10.8072,0.453979,10.7312Q0.516311,10.6553,0.585786,10.5858Q0.655262,10.5163,0.731213,10.454Q0.807164,10.3916,0.888859,10.3371Q0.970554,10.2825,1.05721,10.2362Q1.14386,10.1898,1.23463,10.1522Q1.32541,10.1146,1.41943,10.0861Q1.51345,10.0576,1.60982,10.0384Q1.70619,10.0193,1.80397,10.0096Q1.90175,10,2,10Q2.09825,10,2.19603,10.0096Q2.29381,10.0193,2.39018,10.0384Q2.48655,10.0576,2.58057,10.0861Q2.67459,10.1146,2.76537,10.1522Q2.85614,10.1898,2.94279,10.2362Q3.02945,10.2825,3.11114,10.3371Q3.19284,10.3916,3.26879,10.454Q3.34474,10.5163,3.41421,10.5858Q3.48369,10.6553,3.54602,10.7312Q3.60835,10.8072,3.66294,10.8889Q3.71753,10.9706,3.76384,11.0572Q3.81016,11.1439,3.84776,11.2346Q3.88536,11.3254,3.91388,11.4194Q3.9424,11.5135,3.96157,11.6098Q3.98074,11.7062,3.99037,11.804Q4,11.9017,4,12ZM4,22Q4,22.0983,3.99037,22.196Q3.98074,22.2938,3.96157,22.3902Q3.9424,22.4865,3.91388,22.5806Q3.88536,22.6746,3.84776,22.7654Q3.81016,22.8561,3.76384,22.9428Q3.71753,23.0294,3.66294,23.1111Q3.60835,23.1928,3.54602,23.2688Q3.48369,23.3447,3.41421,23.4142Q3.34474,23.4837,3.26879,23.546Q3.19284,23.6084,3.11114,23.6629Q3.02945,23.7175,2.94279,23.7638Q2.85614,23.8102,2.76537,23.8478Q2.67459,23.8854,2.58057,23.9139Q2.48655,23.9424,2.39018,23.9616Q2.29381,23.9807,2.19603,23.9904Q2.09825,24,2,24Q1.90175,24,1.80397,23.9904Q1.70619,23.9807,1.60982,23.9616Q1.51345,23.9424,1.41943,23.9139Q1.32541,23.8854,1.23463,23.8478Q1.14386,23.8102,1.05721,23.7638Q0.970554,23.7175,0.888859,23.6629Q0.807164,23.6084,0.731213,23.546Q0.655262,23.4837,0.585786,23.4142Q0.516311,23.3447,0.453979,23.2688Q0.391648,23.1928,0.337061,23.1111Q0.282474,23.0294,0.236157,22.9428Q0.189841,22.8561,0.152241,22.7654Q0.114641,22.6746,0.0861193,22.5806Q0.0575978,22.4865,0.0384294,22.3902Q0.0192611,22.2938,0.00963055,22.196Q0,22.0983,0,22Q0,21.9017,0.00963055,21.804Q0.0192611,21.7062,0.0384294,21.6098Q0.0575978,21.5135,0.0861193,21.4194Q0.114641,21.3254,0.152241,21.2346Q0.189841,21.1439,0.236157,21.0572Q0.282474,20.9706,0.337061,20.8889Q0.391648,20.8072,0.453979,20.7312Q0.516311,20.6553,0.585786,20.5858Q0.655262,20.5163,0.731213,20.454Q0.807164,20.3916,0.888859,20.3371Q0.970554,20.2825,1.05721,20.2362Q1.14386,20.1898,1.23463,20.1522Q1.32541,20.1146,1.41943,20.0861Q1.51345,20.0576,1.60982,20.0384Q1.70619,20.0193,1.80397,20.0096Q1.90175,20,2,20Q2.09825,20,2.19603,20.0096Q2.29381,20.0193,2.39018,20.0384Q2.48655,20.0576,2.58057,20.0861Q2.67459,20.1146,2.76537,20.1522Q2.85614,20.1898,2.94279,20.2362Q3.02945,20.2825,3.11114,20.3371Q3.19284,20.3916,3.26879,20.454Q3.34474,20.5163,3.41421,20.5858Q3.48369,20.6553,3.54602,20.7312Q3.60835,20.8072,3.66294,20.8889Q3.71753,20.9706,3.76384,21.0572Q3.81016,21.1439,3.84776,21.2346Q3.88536,21.3254,3.91388,21.4194Q3.9424,21.5135,3.96157,21.6098Q3.98074,21.7062,3.99037,21.804Q4,21.9017,4,22Z" fill="#000000" fill-opacity="1"/>
    </g>
</svg>