<svg xmlns="http://www.w3.org/2000/svg"
    xmlns:xlink="http://www.w3.org/1999/xlink" fill="none" version="1.1" width="20" height="20" viewBox="0 0 20 20">
    <g>
        <g style="opacity:0;">
            <rect x="0" y="0" width="20" height="20" rx="0" fill="#FFFFFF" fill-opacity="0.5"/>
        </g>
        <g>
            <g>
                <path d="M8.999779999999973,4.017289999999807C8.999779999999973,2.9452865999998075,7.472779999999974,2.6042869999998075,6.965779999999974,3.563286999999807L0.11478199999997424,16.53029999999981C-0.24221800000002575,17.205299999999806,0.2767819999999742,18.000299999999807,1.0747799999999743,18.000299999999807L7.925779999999974,18.000299999999807C8.519779999999976,18.000299999999807,8.999779999999973,17.545299999999806,8.999779999999973,16.984299999999806L8.999779999999973,4.017289999999807Z" fill="#FFFFFF" fill-opacity="1"/>
            </g>
            <g>
                <path d="M10.999781608581543,4.017289999999807C10.999781608581543,2.9452865999998075,12.526781608581542,2.6042869999998075,13.033781608581542,3.563286999999807L19.88478160858154,16.53029999999981C20.241781608581544,17.205299999999806,19.722781608581542,18.000299999999807,18.924781608581544,18.000299999999807L12.073781608581543,18.000299999999807C11.479781608581543,18.000299999999807,10.999781608581543,17.545299999999806,10.999781608581543,16.984299999999806L10.999781608581543,4.017289999999807ZM12.999781608581543,7.500269999999808L17.499781608581543,16.000299999999807L12.999781608581543,16.000299999999807L12.999781608581543,7.500269999999808Z" fill-rule="evenodd" fill="#FFFFFF" fill-opacity="1"/>
            </g>
        </g>
    </g>
</svg>