<svg xmlns="http://www.w3.org/2000/svg"
    xmlns:xlink="http://www.w3.org/1999/xlink" fill="none" version="1.1" width="20" height="20" viewBox="0 0 20 20">
    <g>
        <g style="opacity:0;">
            <rect x="0" y="0" width="20" height="20" rx="0" fill="#0067D1" fill-opacity="1"/>
        </g>
        <g>
            <path d="M11.4,16L12.7,17.3C13.1,17.7,13.1,18.3,12.7,18.7C12.3,19.1,11.7,19.1,11.3,18.7L7.6,15L11.3,11.3C11.7,10.9,12.3,10.9,12.7,11.3C13.1,11.7,13.1,12.3,12.7,12.7L11.4,14L13,14C15.8,14,18,11.8,18,9C18,6.2,15.8,4,13,4L7,4C4.2,4,2,6.2,2,9C2,11.1,3.3,12.9,5.2,13.7C5.6,13.8,6,14.3,6,14.7C6,15.4,5.4,15.9,4.8,15.7C2,14.8,0,12.1,0,9C0,5.1,3.1,2,7,2L13,2C16.9,2,20,5.1,20,9C20,12.9,16.9,16,13,16L11.4,16Z" fill="#FFFFFF" fill-opacity="1"/>
        </g>
    </g>
</svg>