<svg xmlns="http://www.w3.org/2000/svg"
    xmlns:xlink="http://www.w3.org/1999/xlink" fill="none" version="1.1" width="20.000015258789062" height="20" viewBox="0 0 20.000015258789062 20">
    <g>
        <g style="opacity:0;">
            <rect x="0" y="0" width="20" height="20" rx="0" fill="#0067D1" fill-opacity="1"/>
        </g>
        <g>
            <path d="M14.0038,4C14.0038,5,13.6041,5.9,13.0045,6.6L13.0045,8.7C10.9058,9.7,9.40678,11.6,9.10698,14L3.41062,14C2.91094,14,2.5112,14.4,2.41126,14.8L2.21139,16L9.10698,16C9.20691,16.7,9.40678,17.4,9.70659,18L1.01216,18C0.412542,18,-0.0871387,17.4,0.0127974,16.8L0.412542,14.5C0.612414,13.1,1.91158,12,3.41062,12L7.00832,12L7.00832,6.6C6.4087,5.9,6.00896,5,6.00896,4C6.00896,1.8,7.80781,0,10.0064,0C12.205,0,14.0038,1.8,14.0038,4ZM12.0051,4C12.0051,4.7,11.6054,5.4,11.0058,5.7L11.0058,9L9.00704,9L9.00704,5.7C8.40742,5.4,8.00768,4.7,8.00768,4C8.00768,2.9,8.9071,2,10.0064,2C11.1057,2,12.0051,2.9,12.0051,4ZM19.7002,11.3C19.3005,10.9,18.7008,10.9,18.3011,11.3L16.0026,13.6L13.704,11.3C13.3043,10.9,12.7047,10.9,12.3049,11.3C11.9052,11.7,11.9052,12.3,12.3049,12.7L14.6035,15L12.3049,17.3C11.9052,17.7,11.9052,18.3,12.3049,18.7C12.7047,19.1,13.3043,19.1,13.704,18.7L16.0026,16.4L18.3011,18.7C18.7008,19.1,19.3005,19.1,19.7002,18.7C20.0999,18.3,20.0999,17.7,19.7002,17.3L17.4017,15L19.7002,12.7C20.0999,12.3,20.0999,11.7,19.7002,11.3Z" fill-rule="evenodd" fill="#FFFFFF" fill-opacity="1"/>
        </g>
    </g>
</svg>