<svg xmlns="http://www.w3.org/2000/svg"
    xmlns:xlink="http://www.w3.org/1999/xlink" fill="none" version="1.1" width="20" height="20" viewBox="0 0 20 20">
    <g>
        <g style="opacity:0;">
            <rect x="0" y="0" width="20" height="20" rx="0" fill="#0067D1" fill-opacity="1"/>
        </g>
        <g>
            <path d="M8,9Q8.09849,9,8.19509,8.98079Q8.29169,8.96157,8.38268,8.92388Q8.47368,8.88619,8.55557,8.83147Q8.63746,8.77675,8.70711,8.70711Q8.77675,8.63746,8.83147,8.55557Q8.88619,8.47368,8.92388,8.38268Q8.96157,8.29169,8.98079,8.19509Q9,8.09849,9,8Q9,7.901509,8.98079,7.80491Q8.96157,7.708311,8.92388,7.617316Q8.88619,7.526322,8.83147,7.44443Q8.77675,7.362537,8.70711,7.292893Q8.63746,7.223249,8.55557,7.16853Q8.47368,7.113811,8.38268,7.0761205Q8.29169,7.0384294,8.19509,7.0192147Q8.09849,7,8,7Q7.901509,7,7.80491,7.0192147Q7.708311,7.0384294,7.617316,7.0761205Q7.526322,7.113811,7.44443,7.16853Q7.362537,7.223249,7.292893,7.292893Q7.223249,7.362537,7.16853,7.44443Q7.113811,7.526322,7.0761205,7.617316Q7.0384294,7.708311,7.0192147,7.80491Q7,7.901509,7,8Q7,8.09849,7.0192147,8.19509Q7.0384294,8.29169,7.0761205,8.38268Q7.113811,8.47368,7.16853,8.55557Q7.223249,8.63746,7.292893,8.70711Q7.362537,8.77675,7.44443,8.83147Q7.526322,8.88619,7.617316,8.92388Q7.708311,8.96157,7.80491,8.98079Q7.901509,9,8,9ZM12,8Q12,8.09849,11.98078,8.19509Q11.96157,8.29169,11.92388,8.38268Q11.88619,8.47368,11.83147,8.55557Q11.77675,8.63746,11.70711,8.70711Q11.63746,8.77675,11.55557,8.83147Q11.47368,8.88619,11.38268,8.92388Q11.29169,8.96157,11.19509,8.98079Q11.09849,9,11,9Q10.90151,9,10.80491,8.98079Q10.70831,8.96157,10.61732,8.92388Q10.52632,8.88619,10.44443,8.83147Q10.36254,8.77675,10.29289,8.70711Q10.22325,8.63746,10.16853,8.55557Q10.11381,8.47368,10.07612,8.38268Q10.03843,8.29169,10.019210000000001,8.19509Q10,8.09849,10,8Q10,7.901509,10.019210000000001,7.80491Q10.03843,7.708311,10.07612,7.617316Q10.11381,7.526322,10.16853,7.44443Q10.22325,7.362537,10.29289,7.292893Q10.36254,7.223249,10.44443,7.16853Q10.52632,7.113811,10.61732,7.0761205Q10.70831,7.0384294,10.80491,7.0192147Q10.90151,7,11,7Q11.09849,7,11.19509,7.0192147Q11.29169,7.0384294,11.38268,7.0761205Q11.47368,7.113811,11.55557,7.16853Q11.63746,7.223249,11.70711,7.292893Q11.77675,7.362537,11.83147,7.44443Q11.88619,7.526322,11.92388,7.617316Q11.96157,7.708311,11.98078,7.80491Q12,7.901509,12,8ZM15,8Q15,8.09849,14.98078,8.19509Q14.96157,8.29169,14.92388,8.38268Q14.88619,8.47368,14.83147,8.55557Q14.77675,8.63746,14.70711,8.70711Q14.63746,8.77675,14.55557,8.83147Q14.47368,8.88619,14.38268,8.92388Q14.29169,8.96157,14.19509,8.98079Q14.09849,9,14,9Q13.90151,9,13.80491,8.98079Q13.70831,8.96157,13.61732,8.92388Q13.52632,8.88619,13.44443,8.83147Q13.36254,8.77675,13.29289,8.70711Q13.22325,8.63746,13.16853,8.55557Q13.11381,8.47368,13.07612,8.38268Q13.03843,8.29169,13.019210000000001,8.19509Q13,8.09849,13,8Q13,7.901509,13.019210000000001,7.80491Q13.03843,7.708311,13.07612,7.617316Q13.11381,7.526322,13.16853,7.44443Q13.22325,7.362537,13.29289,7.292893Q13.36254,7.223249,13.44443,7.16853Q13.52632,7.113811,13.61732,7.0761205Q13.70831,7.0384294,13.80491,7.0192147Q13.90151,7,14,7Q14.09849,7,14.19509,7.0192147Q14.29169,7.0384294,14.38268,7.0761205Q14.47368,7.113811,14.55557,7.16853Q14.63746,7.223249,14.70711,7.292893Q14.77675,7.362537,14.83147,7.44443Q14.88619,7.526322,14.92388,7.617316Q14.96157,7.708311,14.98078,7.80491Q15,7.901509,15,8ZM8,12Q8.09849,12,8.19509,11.98078Q8.29169,11.96157,8.38268,11.92388Q8.47368,11.88619,8.55557,11.83147Q8.63746,11.77675,8.70711,11.70711Q8.77675,11.63746,8.83147,11.55557Q8.88619,11.47368,8.92388,11.38268Q8.96157,11.29169,8.98079,11.19509Q9,11.09849,9,11Q9,10.90151,8.98079,10.80491Q8.96157,10.70831,8.92388,10.61732Q8.88619,10.52632,8.83147,10.44443Q8.77675,10.36254,8.70711,10.29289Q8.63746,10.22325,8.55557,10.16853Q8.47368,10.11381,8.38268,10.07612Q8.29169,10.03843,8.19509,10.019210000000001Q8.09849,10,8,10Q7.901509,10,7.80491,10.019210000000001Q7.708311,10.03843,7.617316,10.07612Q7.526322,10.11381,7.44443,10.16853Q7.362537,10.22325,7.292893,10.29289Q7.223249,10.36254,7.16853,10.44443Q7.113811,10.52632,7.0761205,10.61732Q7.0384294,10.70831,7.0192147,10.80491Q7,10.90151,7,11Q7,11.09849,7.0192147,11.19509Q7.0384294,11.29169,7.0761205,11.38268Q7.113811,11.47368,7.16853,11.55557Q7.223249,11.63746,7.292893,11.70711Q7.362537,11.77675,7.44443,11.83147Q7.526322,11.88619,7.617316,11.92388Q7.708311,11.96157,7.80491,11.98078Q7.901509,12,8,12ZM9,14Q9,14.09849,8.98079,14.19509Q8.96157,14.29169,8.92388,14.38268Q8.88619,14.47368,8.83147,14.55557Q8.77675,14.63746,8.70711,14.70711Q8.63746,14.77675,8.55557,14.83147Q8.47368,14.88619,8.38268,14.92388Q8.29169,14.96157,8.19509,14.98078Q8.09849,15,8,15Q7.901509,15,7.80491,14.98078Q7.708311,14.96157,7.617316,14.92388Q7.526322,14.88619,7.44443,14.83147Q7.362537,14.77675,7.292893,14.70711Q7.223249,14.63746,7.16853,14.55557Q7.113811,14.47368,7.0761205,14.38268Q7.0384294,14.29169,7.0192147,14.19509Q7,14.09849,7,14Q7,13.90151,7.0192147,13.80491Q7.0384294,13.70831,7.0761205,13.61732Q7.113811,13.52632,7.16853,13.44443Q7.223249,13.36254,7.292893,13.29289Q7.362537,13.22325,7.44443,13.16853Q7.526322,13.11381,7.617316,13.07612Q7.708311,13.03843,7.80491,13.019210000000001Q7.901509,13,8,13Q8.09849,13,8.19509,13.019210000000001Q8.29169,13.03843,8.38268,13.07612Q8.47368,13.11381,8.55557,13.16853Q8.63746,13.22325,8.70711,13.29289Q8.77675,13.36254,8.83147,13.44443Q8.88619,13.52632,8.92388,13.61732Q8.96157,13.70831,8.98079,13.80491Q9,13.90151,9,14Z" fill-rule="evenodd" fill="#FFFFFF" fill-opacity="1"/>
        </g>
        <g>
            <path d="M0,4C0,1.79086,1.79086,0,4,0L16,0C18.2091,0,20,1.79086,20,4L20,16C20,18.2091,18.2091,20,16,20L4,20C1.79086,20,0,18.2091,0,16L0,4ZM4,2L16,2C17.1046,2,18,2.89543,18,4L18,7L17,7C16.4477,7,16,7.44772,16,8C16,8.55228,16.4477,9,17,9L18,9L18,16C18,17.1046,17.1046,18,16,18L9,18L9,17C9,16.4477,8.55228,16,8,16C7.44772,16,7,16.4477,7,17L7,18L4,18C2.89543,18,2,17.1046,2,16L2,4C2,2.89543,2.89543,2,4,2Z" fill-rule="evenodd" fill="#FFFFFF" fill-opacity="1"/>
        </g>
    </g>
</svg>