<svg xmlns="http://www.w3.org/2000/svg"
    xmlns:xlink="http://www.w3.org/1999/xlink" fill="none" version="1.1" width="20" height="20" viewBox="0 0 20 20">
    <g>
        <g style="opacity:0;">
            <rect x="0" y="0" width="20" height="20" rx="0" fill="#0067D1" fill-opacity="1"/>
        </g>
        <g>
            <path d="M11,17.0000399848938C14.4681,16.999239984893798,17.4129,14.459239984893799,17.9225,11.028739984893798C18.4322,7.598299984893798,16.3532,4.311799984893799,13.0351,3.302799984893799C9.71701,2.293799984893799,6.16034,3.866529984893799,4.6739999999999995,6.999999984893799L7.5,6.999999984893799C8.05228,6.999999984893799,8.5,7.447719984893799,8.5,7.999999984893799C8.5,8.552279984893799,8.05228,8.9999999848938,7.5,8.9999999848938L1,8.9999999848938L1,2.499999984893799C0.9999999999999999,1.947714984893799,1.447715,1.4999999848937988,2,1.4999999848937988C2.55228,1.4999999848937988,3,1.947714984893799,3,2.499999984893799L3,5.872999984893799C4.908329999999999,2.176109984893799,9.10183,0.2690249848937988,13.1423,1.2605619848937988C17.1828,2.252099984893799,20.0171,5.883809984893799,19.9973,10.044129984893798C19.9774,14.2044399848938,17.1086,17.808939984893797,13.0589,18.7619399848938C9.00912,19.7149399848938,4.83399,17.7679399848938,2.9610000000000003,14.053039984893799C2.694,13.5230399848938,3.017,12.9100399848938,3.589,12.7570399848938C4.089,12.623039984893799,4.603,12.892039984893799,4.85,13.347039984893799C6.07581,15.599539984893799,8.43552,17.0011399848938,11,17.0000399848938Z" fill="#FFFFFF" fill-opacity="1"/>
        </g>
    </g>
</svg>