<svg xmlns="http://www.w3.org/2000/svg"
    xmlns:xlink="http://www.w3.org/1999/xlink" fill="none" version="1.1" width="20" height="20" viewBox="0 0 20 20">
    <g>
        <g style="opacity:0;">
            <rect x="0" y="0" width="20" height="20" rx="0" fill="#0067D1" fill-opacity="1"/>
        </g>
        <g>
            <path d="M8.999999952316283,1C8.999999952316283,0.4,9.399999952316284,0,9.999999952316283,0L12.999999952316283,0C13.599999952316285,0,13.999999952316283,0.4,13.999999952316283,1C13.999999952316283,1.6,13.599999952316285,2,12.999999952316283,2L9.999999952316283,2C9.399999952316284,2,8.999999952316283,1.6,8.999999952316283,1ZM11.499999952316283,18C15.099999952316285,18,17.999999952316283,15.1,17.999999952316283,11.5C17.999999952316283,8.1,15.399999952316284,5.3,11.999999952316283,5L5.999999952316284,5C7.499999952316284,3.8,9.399999952316284,3,11.499999952316283,3C16.199999952316283,3,19.999999952316283,6.8,19.999999952316283,11.5C19.999999952316283,16.2,16.199999952316283,20,11.499999952316283,20C8.099999952316285,20,5.099999952316284,17.9,3.799999952316284,15L5.999999952316284,15C7.1999999523162845,16.8,9.199999952316285,18,11.499999952316283,18Z" fill-rule="evenodd" fill="#FFFFFF" fill-opacity="1"/>
        </g>
        <g>
            <path d="M1.0000000000000364,9C0.40000000000003644,9,3.6415315207705135e-14,8.6,3.6415315207705135e-14,8C3.6415315207705135e-14,7.4,0.40000000000003644,7,1.0000000000000364,7L9.000000000000036,7C9.600000000000037,7,10.000000000000036,7.4,10.000000000000036,8C10.000000000000036,8.6,9.600000000000037,9,9.000000000000036,9L1.0000000000000364,9ZM12.300000000000036,12.50001C12.100000000000037,12.90001,11.500000000000036,13.100010000000001,11.000000000000036,12.90001C10.500000000000036,12.600010000000001,10.300000000000036,12.00001,10.500000000000036,11.50001L12.400000000000038,8.00001C12.600000000000037,7.500011,13.200000000000035,7.300011,13.700000000000035,7.500011C14.200000000000035,7.800011,14.400000000000038,8.40001,14.100000000000037,8.90001L12.300000000000036,12.50001ZM3.0000000000000364,13C2.4000000000000363,13,2.0000000000000364,12.6,2.0000000000000364,12C2.0000000000000364,11.4,2.4000000000000363,11,3.0000000000000364,11L7.000000000000036,11C7.600000000000036,11,8.000000000000036,11.4,8.000000000000036,12C8.000000000000036,12.6,7.600000000000036,13,7.000000000000036,13L3.0000000000000364,13Z" fill-rule="evenodd" fill="#FFFFFF" fill-opacity="1"/>
        </g>
    </g>
</svg>