<svg xmlns="http://www.w3.org/2000/svg"
    xmlns:xlink="http://www.w3.org/1999/xlink" fill="none" version="1.1" width="20" height="20" viewBox="0 0 20 20">
    <g>
        <g style="opacity:0;">
            <rect x="0" y="0" width="20" height="20" rx="0" fill="#0067D1" fill-opacity="1"/>
        </g>
        <g>
            <path d="M19,5.99673C18.4,5.99673,18,5.59695,18,4.99728C18,4.29766,17.7,3.59804,17,2.99837C16.4,2.29875,15.7,1.99891,15,1.99891C14.4,1.99891,14,1.59913,14,0.999455C14,0.399782,14.4,0,15,0C16.3,0,17.6,0.699619,18.5,1.49918C19.3,2.39869,20,3.69798,20,4.99728C20,5.59695,19.6,5.99673,19,5.99673ZM16.5,5.79685C16.2,4.69745,15.3,3.89789,14.1,3.698C12.8,3.49811,11.5,4.39762,11.1,5.49702L8.3,2.79849C7.3,1.69909,5.6,1.69909,4.6,2.79849C4.4,2.99838,4.2,3.19827,4.1,3.49811C3.2,3.39816,2.4,3.59805,1.7,4.19773C0.800001,5.19718,0.700001,6.69636,1.5,7.69582C1.4,7.79576,1.3,7.89571,1.2,7.89571C0.200001,8.99511,0.200001,10.6942,1.2,11.6936L8.1,18.5899C8.8,19.2895,9.7,19.7892,10.7,19.8892C12.3,20.189,13.8,19.6893,14.9,18.4899L17.6,15.6915C18.3,14.9918,18.6,13.9924,18.4,12.9929C18.4,12.9929,17.2,8.59533,16.5,5.79685ZM13.9,5.59696C14.3,5.69691,14.6,5.8968,14.7,6.29658L16.5,13.4927C16.6,13.7925,16.5,14.0923,16.3,14.3922L13.5,17.1906C12.9,17.8903,12,18.1901,11,18.0902C10.4,17.9902,9.9,17.6904,9.5,17.1906L2.6,10.3943C2.3,10.0945,2.3,9.59478,2.6,9.29495L2.8,9.09506C3.1,8.99511,3.4,9.09506,3.6,9.29495L6.9,12.5931C7.1,12.793,7.4,12.793,7.7,12.6931C7.7,12.6931,7.8,12.5931,7.9,12.5931C8.1,12.3933,8.1,12.1934,8.1,12.0934C8.1,11.8935,8.1,11.6936,7.9,11.5937L3.1,6.69636C2.8,6.39653,2.8,5.8968,3.1,5.59696C3.3,5.39707,3.6,5.29713,3.9,5.39707C4,5.39707,4.1,5.49702,4.2,5.59696L8.8,10.1945C8.9,10.2944,9,10.3943,9.1,10.3943L9.5,10.3943C9.6,10.3943,9.7,10.2944,9.9,10.1945C9.9,10.0945,10,9.99457,10,9.89462C10.1,9.79467,10.1,9.79467,10.1,9.69473C10.1,9.49484,10,9.29495,9.9,9.09506L5.9,5.19718C5.7,4.99729,5.6,4.69745,5.7,4.39762C5.8,4.29767,5.8,4.19773,5.9,4.09778C6.2,3.79794,6.7,3.79794,7,4.09778L11.3,8.49538C11.5,8.59533,11.6,8.69527,11.8,8.69527C12.4,8.79522,13,8.39544,12.9,7.69582L12.8,6.69636C12.7,6.09669,13.3,5.49702,13.9,5.59696ZM0.9,14.2922C1.5,14.2922,2,14.692,2,15.2917C2.1,15.8913,2.5,16.6909,3.1,17.1906C3.8,17.7903,4.6,17.9902,5.2,17.9902C5.8,17.8902,6.3,18.39,6.3,18.8897C6.4,19.4894,5.9,19.8892,5.4,19.9891C4.1,20.089,2.8,19.4894,1.8,18.6898C0.9,17.8902,0.1,16.6909,0,15.3916C0,14.8919,0.4,14.3922,0.9,14.2922Z" fill-rule="evenodd" fill="#FFFFFF" fill-opacity="1"/>
        </g>
    </g>
</svg>