<svg xmlns="http://www.w3.org/2000/svg"
    xmlns:xlink="http://www.w3.org/1999/xlink" fill="none" version="1.1" width="20" height="20" viewBox="0 0 20 20">
    <g>
        <g style="opacity:0;">
            <rect x="0" y="0" width="20" height="20" rx="0" fill="#0067D1" fill-opacity="1"/>
        </g>
        <g>
            <path d="M11.0448,3.53952C11.0448,2.23952,9.55224,1.53952,8.55721,2.33952L3.68159,6.43952L1.49254,6.43952C0.696517,6.43952,0,7.13952,0,7.93952L0,12.9395C0,13.7395,0.696517,14.4395,1.49254,14.4395L3.68159,14.4395L8.55721,18.5395C9.55224,19.3395,11.0448,18.6395,11.0448,17.3395L11.0448,3.53952ZM15.9204,3.8395200000000003C16.2189,3.43952,16.9154,3.43952,17.3134,3.8395200000000003C19.005,5.63952,20,7.93952,20,10.43952C20,12.9395,19.005,15.2395,17.3134,17.0395C16.9154,17.439500000000002,16.2189,17.439500000000002,15.9204,17.0395C15.5224,16.639499999999998,15.5224,16.0395,15.9204,15.6395C17.2139,14.2395,18.0099,12.3395,18.0099,10.43952C18.0099,8.53952,17.2139,6.63952,15.9204,5.239520000000001C15.5224,4.83952,15.5224,4.239520000000001,15.9204,3.8395200000000003ZM4.67662,8.239519999999999L9.05473,4.5395199999999996L9.05473,16.3395L4.67662,12.6395C4.57712,12.5395,4.27861,12.4395,4.0796,12.4395L1.99005,12.4395L1.99005,8.43952L4.0796,8.43952C4.27861,8.43952,4.57712,8.33952,4.67662,8.239519999999999Z" fill-rule="evenodd" fill="#FFFFFF" fill-opacity="1"/>
        </g>
        <g>
            <path d="M14.7,6.225C14.3,5.925,13.7,5.925,13.3,6.225C12.9,6.625,12.9,7.325,13.3,7.725C13.9,8.325,14.2,9.125,14.2,9.925C14.2,10.725,13.9,11.525,13.3,12.125C12.9,12.525,12.9,13.225,13.3,13.625C13.7,13.925,14.3,13.925,14.7,13.625C15.7,12.625,16.2,11.325,16.2,9.925C16.2,8.525,15.7,7.225,14.7,6.225Z" fill="#FFFFFF" fill-opacity="1"/>
        </g>
    </g>
</svg>